<svg xmlns="http://www.w3.org/2000/svg" viewBox="0 0 25.63 31"><defs><style>.cls-1{fill:#fff;}</style></defs><title>Asset 2</title><g id="Layer_2" data-name="Layer 2"><g id="Left-side"><path class="cls-1" d="M12.82,0c6.83,0,12.6,2.82,12.8,6.19-.2,3.38-6,6.2-12.8,6.2S.21,9.57,0,6.19C.21,2.82,6,0,12.82,0Z"/><path class="cls-1" d="M25.63,24.63c0,3.45-5.87,6.37-12.81,6.37S0,28.08,0,24.63V21.58C2.19,24.22,7.05,26,12.82,26s10.62-1.79,12.81-4.43v3.05Z"/><path class="cls-1" d="M25.63,18.38c0,3.45-5.87,6.37-12.81,6.37S0,21.83,0,18.38V15.21c2.19,2.63,7.05,4.43,12.82,4.43s10.62-1.8,12.81-4.43v3.17Z"/><path class="cls-1" d="M25.63,12c0,3.45-5.87,6.37-12.81,6.37S0,15.46,0,12V9.22c2.19,2.64,7.05,4.43,12.82,4.43s10.62-1.79,12.81-4.43Z"/></g></g></svg>