<?xml version="1.0" encoding="utf-8"?>
<!-- Generator: Adobe Illustrator 22.1.0, SVG Export Plug-In . SVG Version: 6.00 Build 0)  -->
<svg version="1.1" id="Capa_1" xmlns="http://www.w3.org/2000/svg" xmlns:xlink="http://www.w3.org/1999/xlink" x="0px" y="0px"
	 viewBox="0 0 480 480" style="enable-background:new 0 0 480 480;" xml:space="preserve">
<style type="text/css">
	.st0{fill:#FFFFFF;}
</style>
<g>
	<g>
		<g>
			<path class="st0" d="M279.3,144c-3.8-18.7-20.2-32.1-39.2-32c-13.3,0-24-10.7-24-24s10.7-24,24-24s24,10.7,24,24h16
				c0-19-13.4-35.4-32-39.2V32h-16v16.8c-21.6,4.4-35.6,25.5-31.2,47.2c3.8,18.7,20.2,32.1,39.2,32c13.3,0,24,10.7,24,24
				s-10.7,24-24,24s-24-10.7-24-24h-16c0,19,13.4,35.4,32,39.2V208h16v-16.8C269.7,186.8,283.7,165.7,279.3,144z"/>
		</g>
	</g>
	<g>
		<g>
			<path class="st0" d="M360.1,120c0-66.3-53.8-120-120-120s-120,53.8-120,120c0,57,40.1,106.1,96,117.6V320h-8c-2,0-3.8,0.7-5.3,2
				l-72,64c-1.7,1.5-2.7,3.7-2.7,6v80c0,4.4,3.6,8,8,8h152c13.2,0.1,23.9-10.6,24-23.8c0-6-2.2-11.8-6.2-16.2c8.3-9,8.3-23,0-32
				c8.3-9,8.3-23,0-32c8.9-9.8,8.2-24.9-1.5-33.8c-4.4-4-10.2-6.3-16.2-6.2h-9.5c-2.4-6.8-7.8-12.1-14.5-14.5v-83.9
				C319.9,226.1,360,177,360.1,120z M240.1,388v-20h-16v20c0,9.1,4.5,17.7,12,22.9c-6,9.1-5.1,21.1,2.3,29.1c-6,6.4-7.9,15.7-4.8,24
				h-89.4v-68.4l67-59.6h45c4.4,0,8,3.6,8,8v44c0,6.6-5.4,12-12,12C245.5,400,240.1,394.6,240.1,388z M232.1,320v-80.4
				c2.7,0.2,5.3,0.4,8,0.4s5.3-0.2,8-0.4V320H232.1z M288.1,464h-32c-4.4,0-8-3.6-8-8s3.6-8,8-8h32c4.4,0,8,3.6,8,8
				S292.5,464,288.1,464z M280.1,352h8c4.4,0,8,3.6,8,8s-3.6,8-8,8h-8V352z M280.1,388v-4h8c4.4,0,8,3.6,8,8s-3.6,8-8,8h-10.8
				C279.1,396.2,280.1,392.1,280.1,388z M288.1,416c4.4,0,8,3.6,8,8s-3.6,8-8,8h-32c-4.4,0-8-3.6-8-8s3.6-8,8-8H288.1z M240.1,224
				c-57.4-0.1-103.9-46.6-104-104c0-57.4,46.6-104,104-104s104,46.6,104,104S297.5,224,240.1,224z"/>
		</g>
	</g>
	<g>
		<g>
			<path class="st0" d="M72.1,312c-4.4,0-8-3.6-8-8s3.6-8,8-8s8,3.6,8,8h16c0-10.1-6.4-19.1-16-22.5V272h-16v9.5
				c-12.5,4.4-19,18.1-14.6,30.5c3.4,9.6,12.5,16,22.6,16c4.4,0,8,3.6,8,8s-3.6,8-8,8s-8-3.6-8-8h-16c0,10.1,6.4,19.1,16,22.5v9.5
				h16v-9.5c12.5-4.4,19-18.1,14.6-30.5C91.3,318.4,82.3,312,72.1,312z"/>
		</g>
	</g>
	<g>
		<g>
			<path class="st0" d="M72.1,247.9c-39.8,0-72,32.2-72,72c0,36.7,27.5,67.5,64,71.6V480h16v-88.5c36.4-4.1,64-34.9,64-71.5
				C144.1,280.2,111.9,248,72.1,247.9z M72.1,376c-30.9,0-56-25.1-56-56s25.1-56,56-56s56,25.1,56,56
				C128.1,350.9,103,375.9,72.1,376z"/>
		</g>
	</g>
	<g>
		<g>
			<path class="st0" d="M408.1,312c-4.4,0-8-3.6-8-8s3.6-8,8-8s8,3.6,8,8h16c0-10.1-6.4-19.1-16-22.5V272h-16v9.5
				c-12.5,4.4-19,18.1-14.6,30.5c3.4,9.6,12.5,16,22.6,16c4.4,0,8,3.6,8,8s-3.6,8-8,8s-8-3.6-8-8h-16c0,10.1,6.4,19.1,16,22.5v9.5
				h16v-9.5c12.5-4.4,19-18.1,14.6-30.5C427.3,318.4,418.3,312,408.1,312z"/>
		</g>
	</g>
	<g>
		<g>
			<path class="st0" d="M479.4,311.7c-4.2-36.3-34.8-63.7-71.3-63.8c-39.8,0.1-71.9,32.5-71.8,72.2c0.1,36.5,27.5,67.1,63.8,71.3
				V480h16v-88.5C455.6,387,483.9,351.3,479.4,311.7z M408.1,376c-30.9,0-56-25.1-56-56s25.1-56,56-56s56,25.1,56,56
				C464.1,350.9,439,375.9,408.1,376z"/>
		</g>
	</g>
</g>
</svg>
