<?xml version="1.0" encoding="utf-8"?>
<!-- Generator: Adobe Illustrator 22.1.0, SVG Export Plug-In . SVG Version: 6.00 Build 0)  -->
<svg version="1.1" id="Layer_2" xmlns="http://www.w3.org/2000/svg" xmlns:xlink="http://www.w3.org/1999/xlink" x="0px" y="0px"
	 viewBox="0 0 480 480" style="enable-background:new 0 0 480 480;" xml:space="preserve">
<style type="text/css">
	.st0{fill:#FFFFFF;}
</style>
<g>
	<path class="st0" d="M443.1,104.1l-66.1-66.1c-1.2-1.2-2.9-1.9-4.7-1.9H200.3c-3.7,0-6.6,3-6.6,6.6v224.8l-56.2-32.1
		c-2-1.2-4.5-1.2-6.6,0l-92.6,52.9c-2.1,1.2-3.3,3.4-3.3,5.7v92.6c0,2.4,1.3,4.6,3.3,5.7l92.6,52.9c1,0.6,2.1,0.9,3.3,0.9
		c1.1,0,2.3-0.3,3.3-0.9l92.6-52.9c2.1-1.2,3.3-3.4,3.3-5.7v-19.8h132.3v52.9c0,14.6,11.9,26.5,26.5,26.5s26.5-11.9,26.5-26.5v-52.9
		h19.8c3.7,0,6.6-3,6.6-6.6V108.7C445,106.9,444.3,105.3,443.1,104.1z M378.9,58.6l43.6,43.6h-43.6V58.6z M134.2,248.6l79.2,45.3
		l-20.6,11.8l-79.2-45.3L134.2,248.6z M170.5,321.2l-81.7-46.7l11.5-6.6l86.8,49.6v25.1l-13.2,6.6V327
		C173.9,324.6,172.6,322.4,170.5,321.2L170.5,321.2z M75.5,282.2l79.3,45.3l-20.6,11.8l-79.2-45.3L75.5,282.2z M48.2,305.3
		l79.4,45.3V428l-79.4-45.3V305.3z M140.8,428v-77.4l19.8-11.3V360c0,2.3,1.2,4.4,3.1,5.6c1.1,0.7,2.3,1,3.5,1c1,0,2-0.2,3-0.7
		l26.5-13.2c2.2-1.1,3.7-3.4,3.7-5.9v-30.2l19.8-11.3v77.3L140.8,428z M385.5,257.8v135.3h-6.6V253.4L385.5,257.8z M398.7,257.8
		l6.6-4.4v139.7h-6.6V257.8z M392.1,246.3l-11.8-7.9l11.8-31.5l11.8,31.5L392.1,246.3z M392.1,432.8c-7.3,0-13.2-5.9-13.2-13.2
		v-13.2h26.5v13.2C405.3,426.8,399.4,432.8,392.1,432.8z M431.8,353.4h-13.2V241c0-0.8-0.1-1.6-0.4-2.3l-19.8-52.9
		c-1-2.6-3.4-4.3-6.2-4.3s-5.2,1.7-6.2,4.3l-19.8,52.9c-0.3,0.7-0.4,1.5-0.4,2.3v112.4H233.4v-59.5c0-2.4-1.3-4.6-3.3-5.7L206.9,275
		V49.2h158.7v59.5c0,3.7,3,6.6,6.6,6.6h59.5V353.4z"/>
	<path class="st0" d="M220.2,128.6h13.2v13.2h-13.2V128.6z"/>
	<path class="st0" d="M246.6,128.6h171.9v13.2H246.6V128.6z"/>
	<path class="st0" d="M405.3,155h13.2v13.2h-13.2V155z"/>
	<path class="st0" d="M220.2,155h171.9v13.2H220.2V155z"/>
	<path class="st0" d="M220.2,181.5h132.3v13.2H220.2V181.5z"/>
	<path class="st0" d="M220.2,207.9h132.3v13.2H220.2V207.9z"/>
</g>
</svg>
