<?xml version="1.0" encoding="utf-8"?>
<!-- Generator: Adobe Illustrator 22.1.0, SVG Export Plug-In . SVG Version: 6.00 Build 0)  -->
<svg version="1.1" id="Capa_1" xmlns="http://www.w3.org/2000/svg" xmlns:xlink="http://www.w3.org/1999/xlink" x="0px" y="0px"
	 viewBox="0 0 481.1 481.1" style="enable-background:new 0 0 481.1 481.1;" xml:space="preserve">
<style type="text/css">
	.st0{fill:#FFFFFF;}
</style>
<g>
	<g>
		<g>
			<path class="st0" d="M480.7,303.4c-2.5-9.1-11.9-14.8-25.3-14.8l-0.1,0l-245.4,23.7l-37.7-22.6c-1.2-0.7-2.7-1.1-4.1-1.1H80v-8
				c0-4.4-3.6-8-8-8H8c-4.4,0-8,3.6-8,8v152c0,4.4,3.6,8,8,8h64c4.4,0,8-3.6,8-8v-8h30.3l126.5,55.3c2.5,1.1,5.4,0.8,7.7-0.7
				l223.6-151.8C477.4,323.3,482.6,313.3,480.7,303.4z M64,424.5H16v-136h48V424.5z M459.5,313.9L239.2,463.4l-124-54.2
				c-1-0.4-2.1-0.7-3.2-0.7H80v-104h85.8l77.7,46.6c5.7,4.2,9.5,10.5,10.6,17.5c1.2,5.7,0.1,11.7-3.2,16.5
				c-6.6,9.1-21.4,15-30.5,8.7l-48-32l-8.9,13.3l47.9,31.9c5.3,3.6,11.6,5.5,18,5.5c13.6-0.4,26.3-7.1,34.3-18
				c5.8-8.3,8-18.7,6-28.6c-1.9-11.4-8.3-21.6-17.7-28.3l-19.2-11.5L456,304.5c6.3,0,9,2.2,9.2,3.1
				C465.5,308.4,464.4,311,459.5,313.9z"/>
		</g>
	</g>
	<g>
		<g>
			<path class="st0" d="M408,96.5c-35.3,0-64,28.7-64,64c0,35.3,28.7,64,64,64s64-28.7,64-64C472,125.2,443.3,96.5,408,96.5z
				 M408,184.5c-4.4,0-8-3.6-8-8h-16c0,10.1,6.4,19.2,16,22.5v8.8c-26.1-4.4-43.7-29.1-39.3-55.2c3.4-20.2,19.2-36,39.3-39.3v8.8
				c-9.6,3.4-16,12.4-16,22.5c0,16.9,13.5,21.1,21.6,23.6c9,2.8,10.4,3.9,10.4,8.4C416,180.9,412.4,184.5,408,184.5z M416,207.8
				v-8.8c9.6-3.4,16-12.4,16-22.5c0-16.9-13.5-21.1-21.6-23.7c-9-2.8-10.4-3.9-10.4-8.3c0-4.4,3.6-8,8-8s8,3.6,8,8h16
				c0-10.1-6.4-19.2-16-22.5v-8.8c23.1,3.9,40,23.9,40,47.3C456,183.9,439.1,203.9,416,207.8z"/>
		</g>
	</g>
	<g>
		<g>
			<path class="st0" d="M248,144.5c-35.3,0-64,28.7-64,64c0,35.3,28.7,64,64,64s64-28.7,64-64C312,173.2,283.3,144.5,248,144.5z
				 M248,232.5c-4.4,0-8-3.6-8-8h-16c0,10.1,6.4,19.2,16,22.5v8.8c-26.1-4.4-43.7-29.1-39.3-55.2c3.4-20.2,19.2-36,39.3-39.3v8.8
				c-9.6,3.4-16,12.4-16,22.5c0,16.9,13.5,21.1,21.6,23.6c9,2.8,10.4,3.9,10.4,8.4C256,228.9,252.4,232.5,248,232.5z M256,255.8
				v-8.8c9.6-3.4,16-12.4,16-22.5c0-16.9-13.5-21.1-21.6-23.7c-9-2.8-10.4-3.9-10.4-8.3c0-4.4,3.6-8,8-8s8,3.6,8,8h16
				c0-10.1-6.4-19.2-16-22.5v-8.8c23.1,3.9,40,23.9,40,47.3C296,231.9,279.1,251.9,256,255.8z"/>
		</g>
	</g>
	<g>
		<g>
			<path class="st0" d="M104,80.5c-35.3,0-64,28.7-64,64c0,35.3,28.7,64,64,64s64-28.7,64-64C168,109.2,139.3,80.5,104,80.5z
				 M104,168.5c-4.4,0-8-3.6-8-8H80c0,10.1,6.4,19.2,16,22.5v8.8c-26.1-4.4-43.7-29.1-39.3-55.2c3.4-20.2,19.2-36,39.3-39.3v8.8
				c-9.6,3.4-16,12.4-16,22.5c0,16.9,13.5,21.1,21.6,23.6c9,2.8,10.4,3.9,10.4,8.4C112,164.9,108.4,168.5,104,168.5z M112,191.8
				v-8.8c9.6-3.4,16-12.4,16-22.5c0-16.9-13.5-21.1-21.6-23.7c-9-2.8-10.4-3.9-10.4-8.3c0-4.4,3.6-8,8-8s8,3.6,8,8h16
				c0-10.1-6.4-19.2-16-22.5v-8.8c23.1,3.9,40,23.9,40,47.3C152,167.9,135.1,187.9,112,191.8z"/>
		</g>
	</g>
	<g>
		<g>
			<rect x="400" y="32.5" class="st0" width="16" height="48"/>
		</g>
	</g>
	<g>
		<g>
			<rect x="400" y="0.5" class="st0" width="16" height="16"/>
		</g>
	</g>
	<g>
		<g>
			<rect x="240" y="32.5" class="st0" width="16" height="88"/>
		</g>
	</g>
	<g>
		<g>
			<rect x="240" y="0.5" class="st0" width="16" height="16"/>
		</g>
	</g>
	<g>
		<g>
			<rect x="96" y="0.5" class="st0" width="16" height="16"/>
		</g>
	</g>
	<g>
		<g>
			<rect x="96" y="32.5" class="st0" width="16" height="32"/>
		</g>
	</g>
</g>
</svg>
