<svg xmlns="http://www.w3.org/2000/svg" viewBox="0 0 481.06 481.06"><defs><style>.cls-1{fill:#fff;}</style></defs><title>Edit</title><g id="Nav-bar"><g id="Icon-N-B"><path class="cls-1" d="M444,354.93H37.09a17.71,17.71,0,0,0-13,5.5,17.72,17.72,0,0,0-5.5,13v37a17.77,17.77,0,0,0,5.5,13,17.79,17.79,0,0,0,13,5.48H444a18.73,18.73,0,0,0,18.49-18.49v-37A18.77,18.77,0,0,0,444,354.93Z"/><path class="cls-1" d="M457,64.52A17.75,17.75,0,0,0,444,59H37.09a17.74,17.74,0,0,0-13,5.49,17.74,17.74,0,0,0-5.5,13v37a17.7,17.7,0,0,0,5.5,13,17.73,17.73,0,0,0,13,5.5H444a18.77,18.77,0,0,0,18.49-18.49v-37A17.74,17.74,0,0,0,457,64.52Z"/><path class="cls-1" d="M444,207H37.09a17.75,17.75,0,0,0-13,5.5,17.73,17.73,0,0,0-5.5,13v37a17.76,17.76,0,0,0,5.5,13,17.76,17.76,0,0,0,13,5.49H444a18.75,18.75,0,0,0,18.49-18.5v-37A18.77,18.77,0,0,0,444,207Z"/></g></g></svg>