<svg xmlns="http://www.w3.org/2000/svg" viewBox="0 0 481.06 481.06"><defs><style>.cls-1{fill:#fff;}.cls-2{fill:#e6e9ee;}.cls-3{fill:#1b2133;}.cls-4{fill:#202f4f;opacity:0.82;}</style></defs><title>Icon</title><g id="Layer_2" data-name="Layer 2"><path class="cls-1" d="M156.48,28.32v53c0,17.49-14.21,31.9-31.45,31.9H72.78V420.84c0,17.49,14.2,31.9,31.45,31.9H379.16c17.25,0,31.45-14.41,31.45-31.9V60.22c0-17.49-14.2-31.9-31.45-31.9Z"/><path class="cls-2" d="M156.48,28.32l-83.7,85.4H125c17.24,0,31.45-14.4,31.45-31.89Z"/><path class="cls-3" d="M157.49,154.88h-42.1a5.11,5.11,0,0,0-5.07,5.14v42.7a5.12,5.12,0,0,0,5.07,5.14h42.1a5.11,5.11,0,0,0,5.07-5.14V160A5.49,5.49,0,0,0,157.49,154.88Zm-5.07,42.69h-32v-32.4h32Z"/><path class="cls-3" d="M157.49,244.39h-42.1a5.11,5.11,0,0,0-5.07,5.14v42.7a5.13,5.13,0,0,0,5.07,5.15h42.1a5.12,5.12,0,0,0,5.07-5.15v-42.7A5.49,5.49,0,0,0,157.49,244.39Zm-5.07,42.7h-32V254.68h32Z"/><path class="cls-3" d="M157.49,333.9h-42.1a5.12,5.12,0,0,0-5.07,5.15v42.69a5.12,5.12,0,0,0,5.07,5.15h42.1a5.12,5.12,0,0,0,5.07-5.15V339.05A5.49,5.49,0,0,0,157.49,333.9Zm-5.07,42.7h-32V344.19h32Z"/><ellipse class="cls-4" cx="353.25" cy="268.57" rx="107.03" ry="108.55"/><path class="cls-1" d="M336.51,328.76a14,14,0,0,1-8.12-5.15L303,290.17a13.49,13.49,0,0,1,2.54-19,13.07,13.07,0,0,1,18.77,2.57l14.2,18.52,48.7-72a13,13,0,0,1,18.26-3.6c6.09,4.11,7.61,12.86,3.55,18.52l-58.84,88a13.2,13.2,0,0,1-10.66,5.66A3.21,3.21,0,0,1,336.51,328.76Z"/></g></svg>