<svg xmlns="http://www.w3.org/2000/svg" viewBox="0 0 28 14.84"><defs><style>.cls-1{fill:#fff;}</style></defs><title>Asset 10</title><g id="Layer_2" data-name="Layer 2"><g id="Layer_5" data-name="Layer 5"><path class="cls-1" d="M27.79,6.87a23.94,23.94,0,0,0-4-3.42A17.5,17.5,0,0,0,14,0,17.5,17.5,0,0,0,4.21,3.45a24.45,24.45,0,0,0-4,3.42A.83.83,0,0,0,.21,8a24.77,24.77,0,0,0,4,3.43A17.56,17.56,0,0,0,14,14.84a17.56,17.56,0,0,0,9.79-3.44,24.25,24.25,0,0,0,4-3.43A.83.83,0,0,0,27.79,6.87ZM5.18,10.07A25.27,25.27,0,0,1,2,7.42a23.22,23.22,0,0,1,6.9-4.68,7,7,0,0,0,0,9.35A20.42,20.42,0,0,1,5.18,10.07ZM14,12.73a5.31,5.31,0,1,1,5.32-5.31A5.31,5.31,0,0,1,14,12.73Zm5.15-.63a6.94,6.94,0,0,0,0-9.35,20.42,20.42,0,0,1,3.67,2A25.27,25.27,0,0,1,26,7.42,23.28,23.28,0,0,1,19.15,12.1Z"/></g></g></svg>