<svg xmlns="http://www.w3.org/2000/svg" viewBox="0 0 481.06 481.06"><defs><style>.cls-1{fill:#fff;}</style></defs><title>Icon</title><g id="Layer_3" data-name="Layer 3"><path class="cls-1" d="M187.33,360.82a35,35,0,1,1-35,35A35,35,0,0,1,187.33,360.82Z"/><path class="cls-1" d="M340,360.82a35,35,0,1,1-35,35A35,35,0,0,1,340,360.82Z"/><path class="cls-1" d="M429.17,169h-216s-12.76,2.9-12.76,16.92,12.76,18.14,12.76,18.14H406.83L396,240.88H205.62s-11.9,2.7-11.9,15.74,11.9,16.92,11.9,16.92H386.31L376.1,308H179.59L166.54,204.05l-4.23-35s-3.8-32.38-5.95-45.73S120.65,93,48.47,59c-17-7.12-31.17,23.93,0,40.18l56.92,26.59s13.24,7.69,14.38,18S144,325.36,144,325.36s.92,23.83,22.58,23.83H383.76c18.18,0,21.71-19,21.71-19l43-127.83S461.28,169,429.17,169Z"/></g></svg>