<svg xmlns="http://www.w3.org/2000/svg" viewBox="0 0 481.06 481.06"><defs><style>.cls-1{fill:#fff;}</style></defs><title>Icon</title><g id="Layer_6" data-name="Layer 6"><path class="cls-1" d="M429.47,168.37a22.76,22.76,0,1,0,22.76,22.75A22.79,22.79,0,0,0,429.47,168.37Zm-327.36,0a22.76,22.76,0,1,0,22.78,22.75A22.8,22.8,0,0,0,102.11,168.37ZM361.72,127a33.87,33.87,0,1,0,33.92,33.9A33.89,33.89,0,0,0,361.72,127ZM466.86,333h-38.6V261.94a66.39,66.39,0,0,0-9.35-33.41,36.93,36.93,0,0,1,10.56-1.71,37.49,37.49,0,0,1,37.39,37.45ZM169.83,127a33.87,33.87,0,1,0,33.87,33.9A33.92,33.92,0,0,0,169.83,127Zm-67.72,99.87a36.7,36.7,0,0,1,10.51,1.71,65.59,65.59,0,0,0-9.34,33.41V333H64.67V264.27A37.5,37.5,0,0,1,102.11,226.82ZM265.74,59.22a50.12,50.12,0,1,0,50.11,50.1A50.18,50.18,0,0,0,265.74,59.22ZM415.85,359.45H356.69V251.33a89.46,89.46,0,0,0-10.27-41.09,53.37,53.37,0,0,1,15.25-2.46,54.23,54.23,0,0,1,54.18,54.16ZM174.77,251.33V359.45H115.68V261.94a54.22,54.22,0,0,1,54.18-54.16A52.77,52.77,0,0,1,185,210.24,89.71,89.71,0,0,0,174.77,251.33Zm12.4,139.41H344.29V251.33a78.56,78.56,0,1,0-157.12,0Z"/></g></svg>