<?xml version="1.0" encoding="iso-8859-1"?>
<!-- Generator: Adobe Illustrator 19.0.0, SVG Export Plug-In . SVG Version: 6.00 Build 0)  -->
<svg version="1.1" id="Capa_1" xmlns="http://www.w3.org/2000/svg" xmlns:xlink="http://www.w3.org/1999/xlink" x="0px" y="0px"
	 viewBox="0 0 481.061 481.061" style="enable-background:new 0 0 481.061 481.061;" xml:space="preserve">
<g>
	<g>
		<path d="M480.664,303.394c-2.535-9.137-11.934-14.828-25.305-14.828l-0.129,0.004l-245.373,23.746l-37.74-22.644
			c-1.244-0.746-2.667-1.14-4.117-1.141H80v-8c0-4.418-3.582-8-8-8H8c-4.418,0-8,3.582-8,8v152c0,4.418,3.582,8,8,8h64
			c4.418,0,8-3.582,8-8v-8h30.328l126.465,55.328c2.518,1.102,5.425,0.835,7.699-0.707l223.629-151.766
			C477.384,323.291,482.588,313.338,480.664,303.394z M64,424.531H16v-136h48V424.531z M459.508,313.91L239.16,463.433
			l-123.953-54.23c-1.011-0.444-2.103-0.673-3.207-0.672H80v-104h85.785l77.684,46.594c5.713,4.217,9.53,10.519,10.621,17.535
			c1.207,5.705,0.055,11.655-3.195,16.496c-6.648,9.144-21.356,14.965-30.457,8.719l-48-32l-8.875,13.312l47.906,31.938
			c5.31,3.632,11.606,5.547,18.039,5.488c13.608-0.414,26.268-7.068,34.324-18.043c5.812-8.323,7.988-18.653,6.027-28.613
			c-1.904-11.418-8.292-21.601-17.742-28.285l-19.2-11.52L456,304.531c6.266,0,8.973,2.156,9.246,3.141
			C465.453,308.417,464.387,310.964,459.508,313.91z"/>
	</g>
</g>
<g>
	<g>
		<path d="M408,96.531c-35.329,0.04-63.96,28.671-64,64c0,35.346,28.654,64,64,64c35.346,0,64-28.654,64-64
			C472,125.184,443.346,96.531,408,96.531z M408,184.531c-4.418,0-8-3.582-8-8h-16c0.031,10.137,6.439,19.158,16,22.525v8.752
			c-26.111-4.385-43.723-29.106-39.338-55.217c3.385-20.158,19.18-35.953,39.338-39.338v8.752c-9.561,3.368-15.969,12.389-16,22.526
			c0,16.887,13.527,21.102,21.609,23.621c9.031,2.816,10.391,3.914,10.391,8.379C416,180.949,412.418,184.531,408,184.531z
			 M416,207.808v-8.752c9.562-3.368,15.969-12.389,16-22.526c0-16.91-13.539-21.129-21.629-23.652
			c-9.016-2.809-10.371-3.902-10.371-8.348c0-4.418,3.582-8,8-8s8,3.582,8,8h16c-0.031-10.137-6.438-19.158-16-22.526v-8.751
			c23.068,3.914,39.96,23.88,40,47.277C455.96,183.928,439.068,203.894,416,207.808z"/>
	</g>
</g>
<g>
	<g>
		<path d="M248,144.531c-35.329,0.04-63.96,28.671-64,64c0,35.346,28.654,64,64,64c35.346,0,64-28.654,64-64
			C312,173.184,283.346,144.531,248,144.531z M248,232.531c-4.418,0-8-3.582-8-8h-16c0.031,10.137,6.439,19.158,16,22.525v8.752
			c-26.111-4.385-43.723-29.106-39.338-55.217c3.385-20.158,19.18-35.953,39.338-39.338v8.752c-9.561,3.368-15.969,12.389-16,22.526
			c0,16.887,13.527,21.102,21.609,23.621c9.031,2.816,10.391,3.914,10.391,8.379C256,228.949,252.418,232.531,248,232.531z
			 M256,255.808v-8.752c9.562-3.368,15.969-12.389,16-22.526c0-16.91-13.539-21.129-21.629-23.652
			c-9.016-2.809-10.371-3.902-10.371-8.348c0-4.418,3.582-8,8-8s8,3.582,8,8h16c-0.031-10.137-6.438-19.158-16-22.526v-8.751
			c23.068,3.914,39.96,23.88,40,47.277C295.96,231.928,279.068,251.894,256,255.808z"/>
	</g>
</g>
<g>
	<g>
		<path d="M104,80.531c-35.329,0.04-63.96,28.671-64,64c0,35.346,28.654,64,64,64c35.346,0,64-28.654,64-64
			C168,109.184,139.346,80.531,104,80.531z M104,168.531c-4.418,0-8-3.582-8-8H80c0.031,10.137,6.439,19.158,16,22.525v8.752
			c-26.111-4.385-43.723-29.106-39.338-55.217c3.385-20.158,19.18-35.953,39.338-39.338v8.752c-9.561,3.368-15.969,12.389-16,22.526
			c0,16.887,13.527,21.102,21.609,23.621c9.031,2.816,10.391,3.914,10.391,8.379C112,164.949,108.418,168.531,104,168.531z
			 M112,191.808v-8.752c9.561-3.368,15.969-12.389,16-22.526c0-16.91-13.539-21.129-21.629-23.652
			C97.355,134.07,96,132.976,96,128.531c0-4.418,3.582-8,8-8s8,3.582,8,8h16c-0.031-10.137-6.438-19.158-16-22.526v-8.752
			c23.068,3.914,39.96,23.88,40,47.277C151.96,167.928,135.068,187.894,112,191.808z"/>
	</g>
</g>
<g>
	<g>
		<rect x="400" y="32.531" width="16" height="48"/>
	</g>
</g>
<g>
	<g>
		<rect x="400" y="0.531" width="16" height="16"/>
	</g>
</g>
<g>
	<g>
		<rect x="240" y="32.531" width="16" height="88"/>
	</g>
</g>
<g>
	<g>
		<rect x="240" y="0.531" width="16" height="16"/>
	</g>
</g>
<g>
	<g>
		<rect x="96" y="0.531" width="16" height="16"/>
	</g>
</g>
<g>
	<g>
		<rect x="96" y="32.531" width="16" height="32"/>
	</g>
</g>
<g>
</g>
<g>
</g>
<g>
</g>
<g>
</g>
<g>
</g>
<g>
</g>
<g>
</g>
<g>
</g>
<g>
</g>
<g>
</g>
<g>
</g>
<g>
</g>
<g>
</g>
<g>
</g>
<g>
</g>
</svg>
