<svg xmlns="http://www.w3.org/2000/svg" viewBox="0 0 18 22.98"><defs><style>.cls-1{fill:#fff;}</style></defs><title>Asset 1</title><g id="Layer_2" data-name="Layer 2"><g id="Left-side"><path class="cls-1" d="M12.41,0H0V23H18V5.59Zm.23,1.31,4.05,4.05H12.64ZM.77,22.21V.77h11.1V6.13h5.36V22.21Z"/><path class="cls-1" d="M13.79,8H7.66a.39.39,0,0,0,0,.77h6.13a.39.39,0,0,0,0-.77Z"/><path class="cls-1" d="M6.27,7,4.62,8.3,4.1,7.77a.38.38,0,1,0-.54.54l.76.77a.43.43,0,0,0,.28.11.4.4,0,0,0,.23-.08L6.75,7.58A.38.38,0,0,0,6.27,7Z"/><path class="cls-1" d="M13.79,12.26H7.66a.38.38,0,1,0,0,.76h6.13a.38.38,0,1,0,0-.76Z"/><path class="cls-1" d="M6.27,11.19,4.62,12.51,4.1,12a.38.38,0,0,0-.54,0,.39.39,0,0,0,0,.55l.76.76a.38.38,0,0,0,.28.11.34.34,0,0,0,.23-.08l1.92-1.53a.38.38,0,0,0-.48-.6Z"/><path class="cls-1" d="M13.79,16.47H7.66a.38.38,0,1,0,0,.76h6.13a.38.38,0,0,0,0-.76Z"/><path class="cls-1" d="M6.27,15.4,4.62,16.72,4.1,16.2a.38.38,0,0,0-.54.54l.76.76a.39.39,0,0,0,.28.12.35.35,0,0,0,.23-.09L6.75,16a.38.38,0,0,0,.06-.54A.39.39,0,0,0,6.27,15.4Z"/></g></g></svg>