<svg xmlns="http://www.w3.org/2000/svg" viewBox="0 0 481.06 481.06"><defs><style>.cls-1{fill:#fff;}</style></defs><title>Icon</title><g id="Layer_4" data-name="Layer 4"><path class="cls-1" d="M174.8,363.54a5.48,5.48,0,0,0,5.19,3.74c65.65,0,133.53,0,200.88.17h0a5.47,5.47,0,0,0,0-10.94c-66-.16-132.54-.17-197-.17-7.66-23.21-14.45-45.79-21.6-69.63-3.78-12.56-7.68-25.55-11.69-38.54-3.25-11.67-6.58-22.47-11.11-36.09-8.91-29.45-26.79-87.19-27-87.77a5.47,5.47,0,0,0-5.23-3.85H96.71a12.21,12.21,0,0,0-12.22-9.93H25.33C18.5,110.53,13,115.8,13,122.28v7.35c0,6.48,5.55,11.75,12.38,11.75H84.49a12.22,12.22,0,0,0,12.23-10h6.58c4.17,13.46,18.23,58.94,25.78,83.92,0,.05,0,.1,0,.14,4.5,13.5,7.79,24.18,11,35.72,0,0,0,.1,0,.16,4,13,7.91,26,11.68,38.52C159.09,314,166.57,338.86,174.8,363.54Z"/><path class="cls-1" d="M179.9,369.52A28.46,28.46,0,1,0,208.37,398,28.5,28.5,0,0,0,179.9,369.52Z"/><path class="cls-1" d="M383.89,369.52A28.46,28.46,0,1,0,412.35,398,28.49,28.49,0,0,0,383.89,369.52Z"/><path class="cls-1" d="M231.08,244.51a5.46,5.46,0,0,0,.49,5.71l56.07,75.86a5.47,5.47,0,0,0,8.8,0l56.08-75.86a5.47,5.47,0,0,0-4.39-8.72H324.52V127.13a5.45,5.45,0,0,0-5.46-5.46H265a5.46,5.46,0,0,0-5.47,5.46V241.5H236A5.48,5.48,0,0,0,231.08,244.51Z"/><path class="cls-1" d="M430.65,171.64H336.19v58.2h11.94a17.13,17.13,0,0,1,13.77,27.31L305.82,333a17.15,17.15,0,0,1-27.56,0l-56.07-75.86A17.13,17.13,0,0,1,236,229.84H247.9v-58.2H153.43c-6.83,0-12.39,5.27-12.39,11.76v7.34c0,6.48,5.56,11.75,12.39,11.75h3.94L199,344a5.45,5.45,0,0,0,5.24,3.92H379.85A5.46,5.46,0,0,0,385.1,344l41.61-141.49h3.94c6.83,0,12.4-5.27,12.4-11.75V183.4C443.05,176.91,437.48,171.64,430.65,171.64Z"/></g></svg>