<?xml version="1.0" encoding="utf-8"?>
<!-- Generator: Adobe Illustrator 22.1.0, SVG Export Plug-In . SVG Version: 6.00 Build 0)  -->
<svg version="1.1" id="Capa_1" xmlns="http://www.w3.org/2000/svg" xmlns:xlink="http://www.w3.org/1999/xlink" x="0px" y="0px"
	 viewBox="0 0 512 512" style="enable-background:new 0 0 512 512;" xml:space="preserve">
<style type="text/css">
	.st0{fill:#FFFFFF;}
</style>
<g>
	<g>
		<g>
			<path class="st0" d="M444.5,17.1h-25.6V8.5c0-4.7-3.8-8.5-8.5-8.5s-8.5,3.8-8.5,8.5v8.5H299.5V8.5c0-4.7-3.8-8.5-8.5-8.5
				s-8.5,3.8-8.5,8.5v8.5H180V8.5c0-4.7-3.8-8.5-8.5-8.5s-8.5,3.8-8.5,8.5v8.5h-25.6c-14.1,0-25.6,11.5-25.6,25.6v162.1
				c0,4.7,3.8,8.5,8.5,8.5s8.5-3.8,8.5-8.5V42.7c0-4.7,3.8-8.5,8.5-8.5h25.6v18.6c-11.8,4.2-18.8,16.2-16.7,28.5
				s12.8,21.3,25.2,21.3s23.1-9,25.2-21.3s-4.9-24.3-16.7-28.5V34.1h102.4v18.6c-11.8,4.2-18.8,16.2-16.7,28.5s12.8,21.3,25.2,21.3
				s23.1-9,25.2-21.3s-4.9-24.3-16.7-28.5V34.1h102.4v18.6c-11.8,4.2-18.8,16.2-16.7,28.5s12.8,21.3,25.2,21.3s23.1-9,25.2-21.3
				s-4.9-24.3-16.7-28.5V34.1h25.6c4.7,0,8.5,3.8,8.5,8.5v443.7c0,4.7-3.8,8.5-8.5,8.5H137.3c-4.7,0-8.5-3.8-8.5-8.5V366.9
				c0-4.7-3.8-8.5-8.5-8.5s-8.5,3.8-8.5,8.5v119.5c0,14.1,11.5,25.6,25.6,25.6h307.2c14.1,0,25.6-11.5,25.6-25.6V42.7
				C470.1,28.5,458.7,17.1,444.5,17.1z M171.5,85.3c-4.7,0-8.5-3.8-8.5-8.5s3.8-8.5,8.5-8.5s8.5,3.8,8.5,8.5
				C180,81.5,176.2,85.3,171.5,85.3z M290.9,85.3c-4.7,0-8.5-3.8-8.5-8.5s3.8-8.5,8.5-8.5s8.5,3.8,8.5,8.5
				C299.4,81.5,295.6,85.3,290.9,85.3z M410.4,85.3c-4.7,0-8.5-3.8-8.5-8.5s3.8-8.5,8.5-8.5s8.5,3.8,8.5,8.5
				C418.9,81.5,415.1,85.3,410.4,85.3z"/>
			<path class="st0" d="M171.5,179.2c0.2,0,0.4,0,0.6,0c2.5-0.2,4.7-1.4,6.2-3.4l25.6-34.1c1.8-2.4,2.2-5.7,1-8.5
				c-1.2-2.8-3.8-4.8-6.8-5.1c-3-0.4-6,0.9-7.8,3.4l-19.7,26.3l-10.1-10.1c-3.3-3.3-8.7-3.3-12,0.1s-3.3,8.7-0.1,12l17.1,17.1
				C167,178.3,169.2,179.2,171.5,179.2z"/>
			<path class="st0" d="M148.4,253.5l17.1,17.1c1.6,1.6,3.8,2.5,6,2.5c0.2,0,0.4,0,0.6,0c2.5-0.2,4.7-1.4,6.2-3.4l25.6-34.1
				c2.8-3.8,2.1-9.1-1.7-11.9s-9.1-2.1-11.9,1.7l-19.7,26.3l-10.1-10.1c-3.3-3.3-8.7-3.3-12,0.1
				C145.1,244.8,145.1,250.2,148.4,253.5z"/>
			<path class="st0" d="M231.2,170.7h196.3c4.7,0,8.5-3.8,8.5-8.5s-3.8-8.5-8.5-8.5H231.2c-4.7,0-8.5,3.8-8.5,8.5
				S226.5,170.7,231.2,170.7z"/>
			<path class="st0" d="M231.2,264.5h196.3c4.7,0,8.5-3.8,8.5-8.5c0-4.7-3.8-8.5-8.5-8.5H231.2c-4.7,0-8.5,3.8-8.5,8.5
				C222.7,260.7,226.5,264.5,231.2,264.5z"/>
			<path class="st0" d="M231.2,358.4h196.3c4.7,0,8.5-3.8,8.5-8.5s-3.8-8.5-8.5-8.5H231.2c-4.7,0-8.5,3.8-8.5,8.5
				S226.5,358.4,231.2,358.4z"/>
			<path class="st0" d="M231.2,452.3h196.3c4.7,0,8.5-3.8,8.5-8.5s-3.8-8.5-8.5-8.5H231.2c-4.7,0-8.5,3.8-8.5,8.5
				S226.5,452.3,231.2,452.3z"/>
			<path class="st0" d="M167.7,349.7l6.2,6.2c2.1,2.2,5.3,3,8.3,2.3c3-0.8,5.3-3.1,6.1-6.1c0.8-3-0.1-6.1-2.3-8.3l-6.1-6.1
				c-0.2-16.5-6.5-32.4-17.7-44.6l-74.1-80.3c-4.6-4.9-10.8-7.9-17.5-8.4c-0.5,0-1-0.2-1.5-0.2h0c-5.4,0-10.6,1.5-15.2,4.4
				c-1.5,1-2.9,2.1-4.2,3.4C39.6,222.2,39.2,238.5,49,249l12.8,13.9l0,0l60.5,65.5C134.1,341.1,150.4,348.7,167.7,349.7z
				 M61.5,237.4c-2.6-2.8-3.3-6.8-1.7-10.3s5-5.7,8.7-5.7l0.2,0c2.6,0,5.1,1.2,6.8,3.1l6.2,6.8l-13.5,13.5L61.5,237.4z M93.4,243.7
				l56.3,61c7,7.5,11.5,17.1,12.8,27.3c-10.6-2-20.4-7.3-27.7-15.2l-54.9-59.5L93.4,243.7z"/>
		</g>
	</g>
</g>
</svg>
