<svg xmlns="http://www.w3.org/2000/svg" viewBox="0 0 481.06 481.06"><defs><style>.cls-1{fill:#fff;}</style></defs><title>Icon</title><g id="Layer_5" data-name="Layer 5"><path class="cls-1" d="M400.48,212.86H65.23A10.16,10.16,0,0,0,55.1,223V416.31a10.16,10.16,0,0,0,10.13,10.13H184.35a10.16,10.16,0,0,0,10.13-10.13v-114c0-2,4.55-3.67,10.12-3.67h56.52c5.57,0,10.13,1.65,10.13,3.67v114a10.16,10.16,0,0,0,10.13,10.13h119.1a10.16,10.16,0,0,0,10.13-10.13V223A10.15,10.15,0,0,0,400.48,212.86ZM127.78,348.4a10.16,10.16,0,0,1-10.13,10.13H103.16A10.16,10.16,0,0,1,93,348.4v-21a10.15,10.15,0,0,1,10.13-10.12h14.49a10.15,10.15,0,0,1,10.13,10.12Zm0-52.53A10.16,10.16,0,0,1,117.65,306H103.16A10.16,10.16,0,0,1,93,295.87V276.52a10.16,10.16,0,0,1,10.13-10.13h14.49a10.16,10.16,0,0,1,10.13,10.13Zm46.06,52.53a10.16,10.16,0,0,1-10.13,10.13H149.22a10.16,10.16,0,0,1-10.13-10.13v-21a10.15,10.15,0,0,1,10.13-10.12h14.49a10.15,10.15,0,0,1,10.13,10.12Zm0-52.53A10.16,10.16,0,0,1,163.71,306H149.22a10.16,10.16,0,0,1-10.13-10.13V276.52a10.16,10.16,0,0,1,10.13-10.13h14.49a10.16,10.16,0,0,1,10.13,10.13ZM326.63,348.4a10.16,10.16,0,0,1-10.13,10.13H302a10.16,10.16,0,0,1-10.12-10.13v-21A10.15,10.15,0,0,1,302,317.32h14.5a10.15,10.15,0,0,1,10.13,10.12Zm0-52.53A10.16,10.16,0,0,1,316.5,306H302a10.16,10.16,0,0,1-10.12-10.13V276.52A10.16,10.16,0,0,1,302,266.39h14.5a10.16,10.16,0,0,1,10.13,10.13ZM372.7,348.4a10.16,10.16,0,0,1-10.13,10.13h-14.5A10.16,10.16,0,0,1,338,348.4v-21a10.15,10.15,0,0,1,10.12-10.12h14.5a10.15,10.15,0,0,1,10.13,10.12Zm0-52.53A10.16,10.16,0,0,1,362.57,306h-14.5A10.16,10.16,0,0,1,338,295.87V276.52a10.16,10.16,0,0,1,10.12-10.13h14.5a10.16,10.16,0,0,1,10.13,10.13Z"/><path class="cls-1" d="M65.23,194.16H400.48c5.58,0,6.53-2.79,2.12-6.19L240.88,63a13.83,13.83,0,0,0-16,0l-67.78,52.36a7.12,7.12,0,0,1-4.15,1.74c-2.31,0-3.86-2-3.86-5.68V71a10.15,10.15,0,0,0-10.12-10.13H109.39A10.15,10.15,0,0,0,99.26,71v78.93c0,5.58-3.61,12.92-8,16.32L63.12,188C58.71,191.37,59.66,194.16,65.23,194.16Z"/></g></svg>