<svg xmlns="http://www.w3.org/2000/svg" viewBox="0 0 24.35 14.21"><defs><style>.cls-1{fill:#fbb03b;}</style></defs><title>Asset 2</title><g id="Layer_2" data-name="Layer 2"><g id="Section"><path class="cls-1" d="M20.17,4.41a3.74,3.74,0,0,0-2.4.89c-.27-3-2.42-5.3-5-5.3A5.24,5.24,0,0,0,7.87,4.29a2.72,2.72,0,0,0-1.36-.37A3.42,3.42,0,0,0,3.39,7.57v.06a2.53,2.53,0,0,0-.56-.06A3.11,3.11,0,0,0,0,10.89a3.11,3.11,0,0,0,2.83,3.32H11V9H9.59l3.65-5.6L16.89,9H15.5v5.23h4.67c2.31,0,4.18-2.19,4.18-4.9S22.48,4.41,20.17,4.41Z"/></g></g></svg>