<svg height="511pt" viewBox="-15 0 511 511.99913" width="511pt" xmlns="http://www.w3.org/2000/svg"><path d="m465.5 0-150 422h-150c-8.402344 0-15-6.601562-15-15v-392c0-8.402344 6.597656-15 15-15zm0 0" fill="#575f64"/><path d="m465.5 0-150 422h-15v-422zm0 0" fill="#32393f"/><path d="m233.898438 198.398438-60-45c-4.800782-3-10.5-3.300782-15.597657-.597657-4.800781 2.699219-7.800781 7.800781-7.800781 13.199219v15h-135c-8.402344 0-15 6.597656-15 15v30c0 8.398438 6.597656 15 15 15h135v15c0 5.398438 3 10.5 7.800781 13.199219 4.796875 2.699219 10.796875 2.398437 15.597657-.601563l60-45c4.199218-2.996094 6.601562-7.5 6.601562-12.597656 0-5.101562-2.402344-9.601562-6.601562-12.601562zm0 0" fill="#9cdd05"/><path d="m240.5 211c0 5.097656-2.402344 9.601562-6.601562 12.597656l-60 45c-4.800782 3-10.800782 3.300782-15.597657.601563-4.800781-2.699219-7.800781-7.800781-7.800781-13.199219v-15h-135c-8.402344 0-15-6.601562-15-15v-15zm0 0" fill="#6b0"/><path d="m308.101562 510.050781c-4.703124-2.664062-7.601562-7.644531-7.601562-13.050781v-392c0-5.273438 2.769531-10.152344 7.277344-12.859375l150-90c4.644531-2.785156 10.417968-2.855469 15.117187-.191406 4.703125 2.667969 7.605469 7.644531 7.605469 13.050781v392c0 5.273438-2.769531 10.152344-7.28125 12.859375l-150 90c-4.644531 2.78125-10.417969 2.855469-15.117188.191406zm0 0" fill="#ff9100"/><path d="m390.527344 286c0 8.285156-6.714844 15-15 15s-15-6.714844-15-15 6.714844-15 15-15 15 6.714844 15 15zm0 0" fill="#32393f"/></svg>