<svg xmlns="http://www.w3.org/2000/svg" viewBox="0 0 481.06 481.06"><defs><style>.cls-1{fill:#f45b63;}</style></defs><title>Edit</title><g id="Delete"><path class="cls-1" d="M327.71,129.81H161.48a27.7,27.7,0,0,0-27.71,27.7v9.24H355.42v-9.24A27.71,27.71,0,0,0,327.71,129.81Zm-48.39-18.47,4.07,29.14h-77.6l4.08-29.14h69.45m2.22-18.47H207.65a16.44,16.44,0,0,0-15.77,13.72l-5.4,38.65A11.74,11.74,0,0,0,198.42,159h92.35a11.74,11.74,0,0,0,11.94-13.71l-5.4-38.65a16.45,16.45,0,0,0-15.77-13.72Zm50.79,92.35H156.86a16.6,16.6,0,0,0-16.8,18.39L155.18,370a20.68,20.68,0,0,0,20.15,18.39H313.86A20.66,20.66,0,0,0,334,370l15.12-166.39A16.59,16.59,0,0,0,332.33,185.22ZM207.65,351.45H180l-9.24-129.29h36.94Zm55.41,0H226.12V222.16h36.94Zm46.18,0h-27.7V222.16h36.94Z"/></g></svg>