<svg id="Modifier" xmlns="http://www.w3.org/2000/svg" viewBox="0 0 481.06 481.06"><defs><style>.cls-1{fill:#54a6de;}</style></defs><title>Edit</title><path class="cls-1" d="M370.8,125.25a13.91,13.91,0,0,0-.41-2.32,14.16,14.16,0,0,0-.5-1.56,12.91,12.91,0,0,0-.56-1.27,15,15,0,0,0-1.18-1.9c-.24-.33-.49-.65-.77-1a14.16,14.16,0,0,0-2.74-2.48L333.73,93.41a14.72,14.72,0,0,0-20.32,3.53l-6.76,9.52,54.81,37.84,6.76-9.52a13.89,13.89,0,0,0,.8-1.25,14.17,14.17,0,0,0,1.84-6.75C370.87,126.27,370.84,125.76,370.8,125.25Z"/><polygon class="cls-1" points="321.79 161.83 303.51 149.22 285.25 136.6 177 289.03 195.27 301.64 213.54 314.26 213.54 314.26 177 289.03 170.78 336.97 170.78 336.97 167.87 359.39 167.87 359.39 167.87 359.39 231.81 326.87 340.06 174.44 321.79 161.83"/><path class="cls-1" d="M337.56,139.62,319.29,127,301,114.39l-10.53,14.82a2.45,2.45,0,0,0-3.38.59l-.17.23a2.38,2.38,0,0,0,.6,3.34l-2.3,3.23,18.28,12.61,18.27,12.62,18.27,12.61,2.29-3.23a2.46,2.46,0,0,0,3.39-.59l.16-.23a2.38,2.38,0,0,0-.6-3.34l10.53-14.82Z"/><path class="cls-1" d="M358.92,147.88,304.11,110a2.46,2.46,0,0,0-3.39.59l-.16.23a2.37,2.37,0,0,0,.6,3.34L356,152a2.45,2.45,0,0,0,3.39-.59l.16-.23A2.38,2.38,0,0,0,358.92,147.88Z"/></svg>