<?xml version="1.0" encoding="iso-8859-1"?>
<!-- Generator: Adobe Illustrator 19.0.0, SVG Export Plug-In . SVG Version: 6.00 Build 0)  -->
<svg version="1.1" id="Layer_1" xmlns="http://www.w3.org/2000/svg" xmlns:xlink="http://www.w3.org/1999/xlink" x="0px" y="0px"
	 viewBox="0 0 512 512" style="enable-background:new 0 0 512 512;" xml:space="preserve">
<path style="fill:#5B5D6E;" d="M366.214,120.831l-10.953-30.093c-23.674-69.71-96.857-105.909-164.929-84.702
	c-72.679,22.643-110.944,101.049-85.207,171.763l21.94,60.546h37.575l-26.333-72.621c-18.343-50.394,7.641-106.116,58.036-124.458
	l0,0c50.394-18.342,106.116,7.641,124.458,58.036l12.232,33.608c1.667,4.582,6.733,6.943,11.315,5.276l16.59-6.038
	C365.52,130.478,367.881,125.412,366.214,120.831z"/>
<path style="fill:#B4E66E;" d="M256,512L256,512c-87.756,0-158.897-71.14-158.897-158.897V247.172
	c0-9.751,7.904-17.655,17.655-17.655h282.483c9.751,0,17.655,7.904,17.655,17.655v105.931C414.897,440.86,343.756,512,256,512z"/>
<path style="fill:#A0D755;" d="M300.138,494.345c-87.756,0-158.897-71.14-158.897-158.897V229.517h-26.483
	c-9.75,0-17.655,7.904-17.655,17.655v105.931C97.103,440.86,168.244,512,256,512c29.332,0,56.715-8.088,80.298-21.948
	C324.664,492.764,312.597,494.345,300.138,494.345z"/>
<path style="fill:#464655;" d="M282.483,344.276c0-14.626-11.857-26.483-26.483-26.483c-14.626,0-26.483,11.857-26.483,26.483
	c0,10.675,6.349,19.815,15.448,24.007v28.959c0,6.094,4.94,11.034,11.034,11.034c6.094,0,11.034-4.94,11.034-11.034v-28.959
	C276.132,364.09,282.483,354.951,282.483,344.276z"/>
<g>
	<path style="fill:#C8FF82;" d="M365.698,421.009c-1.716,0-3.457-0.405-5.086-1.25c-5.405-2.815-7.509-9.479-4.69-14.883
		c8.379-16.108,12.629-33.526,12.629-51.772v-17.655c0-6.094,4.94-11.034,11.034-11.034s11.034,4.94,11.034,11.034v17.655
		c0,21.517-5.233,42.944-15.129,61.961C373.526,418.84,369.681,421.009,365.698,421.009z"/>
	<path style="fill:#C8FF82;" d="M379.586,307.862c-6.094,0-11.034-4.94-11.034-11.034v-14.349c0-6.094,4.94-11.034,11.034-11.034
		s11.034,4.94,11.034,11.034v14.349C390.621,302.922,385.681,307.862,379.586,307.862z"/>
</g>
<g>
</g>
<g>
</g>
<g>
</g>
<g>
</g>
<g>
</g>
<g>
</g>
<g>
</g>
<g>
</g>
<g>
</g>
<g>
</g>
<g>
</g>
<g>
</g>
<g>
</g>
<g>
</g>
<g>
</g>
</svg>
