<?xml version="1.0" encoding="iso-8859-1"?>
<!-- Generator: Adobe Illustrator 19.0.0, SVG Export Plug-In . SVG Version: 6.00 Build 0)  -->
<svg version="1.1" id="Layer_1" xmlns="http://www.w3.org/2000/svg" xmlns:xlink="http://www.w3.org/1999/xlink" x="0px" y="0px"
	 viewBox="0 0 512.012 512.012" style="enable-background:new 0 0 512.012 512.012;" xml:space="preserve">
<circle style="fill:#FAD55C;" cx="256.006" cy="256.006" r="256.006"/>
<path style="fill:#E3C04D;" d="M257.309,512L157.178,411.857l201.38-313.744l153.396,153.396c0.023,1.499,0.058,2.998,0.058,4.496
	C512.012,396.962,398.092,511.297,257.309,512z"/>
<polygon style="fill:#F8F8F8;" points="232.797,256.79 187.061,335.995 157.178,411.857 206.811,347.386 252.535,268.181 "/>
<path style="fill:#817C85;" d="M262.404,273.876l120.814,69.752l5.084-8.785c6.964-12.083-0.334-32.397-12.417-39.372l-55.894-32.27
	c0.219-0.346,0.427-0.703,0.634-1.061l55.006-95.277c13.132-22.747,5.88-60.528-20.764-75.92l0,0
	c-26.644-15.38-63.03-2.732-76.139,19.98L223.724,206.2c-0.184,0.311-0.404,0.703-0.6,1.072l-55.894-32.27
	c-12.083-6.975-33.342-3.113-40.295,8.935l-5.084,8.797l120.814,69.752L262.404,273.876z"/>
<path style="fill:#706975;" d="M319.993,263.2l55.64-96.338c12.083-20.925,6.906-54.568-14.734-71.804
	c0.069,0.208,18.493,36.144,1.28,65.175l-54.81,95.681L319.993,263.2z"/>
<path style="fill:#98949C;" d="M313.94,98.275c11.01,0,18.02,8.924,15.645,19.934c-2.375,11.022-13.236,19.945-24.246,19.945
	s-18.02-8.924-15.645-19.945C292.081,107.198,302.93,98.275,313.94,98.275z"/>
<path style="fill:#706975;" d="M375.886,295.47c6.641,3.828,11.829,11.691,14.008,19.992L163.219,184.029
	c-19.381-11.391-41.344,8.693-41.367,8.705l5.084-8.797c6.952-12.048,28.212-15.91,40.295-8.935L375.886,295.47z"/>
<polygon style="fill:#D9D9DD;" points="201.553,342.717 157.178,411.857 206.811,347.386 252.535,268.181 250.241,266.855 
	246.702,264.814 "/>
<g>
</g>
<g>
</g>
<g>
</g>
<g>
</g>
<g>
</g>
<g>
</g>
<g>
</g>
<g>
</g>
<g>
</g>
<g>
</g>
<g>
</g>
<g>
</g>
<g>
</g>
<g>
</g>
<g>
</g>
</svg>
