<svg id="Layer_1" data-name="Layer 1" xmlns="http://www.w3.org/2000/svg" viewBox="0 0 136 121"><defs><style>.cls-1{fill:#333;}</style></defs><title>2-flèches</title><path d="M26.78,63.75h7.91V18c0-1.11.49-3.21,2.32-3.21H50.28c2.49,0,2.62,2.68,2.62,3.22,0,.2,0,.38,0,.51V64.73h8.63a2.09,2.09,0,0,1,2.08,2.39,7.51,7.51,0,0,1-1.25,3.6L45.6,103.43c-.09.17-.89,1.62-2.05,1.7-.49,0-1.22-.18-1.95-1.35-2-3.23-15.71-32.64-16.21-33.75a7.5,7.5,0,0,1-1.15-3.56A2.4,2.4,0,0,1,26.78,63.75Zm-.94,2.72h0Z"/><path class="cls-1" d="M107,59.06H99.06v45.73c0,1.11-.49,3.21-2.32,3.21H83.47c-2.49,0-2.62-2.69-2.62-3.23,0-.2,0-.37,0-.5V58.09H72.24a2.1,2.1,0,0,1-2.08-2.4,7.51,7.51,0,0,1,1.25-3.6L88.16,19.38c.08-.16.88-1.61,2-1.69.49,0,1.22.17,2,1.34,2,3.24,15.71,32.65,16.21,33.76a7.5,7.5,0,0,1,1.15,3.56A2.4,2.4,0,0,1,107,59.06Zm.94-2.71h0Z"/></svg>