<?xml version="1.0" encoding="iso-8859-1"?>
<!-- Generator: Adobe Illustrator 19.0.0, SVG Export Plug-In . SVG Version: 6.00 Build 0)  -->
<svg version="1.1" id="Capa_1" xmlns="http://www.w3.org/2000/svg" xmlns:xlink="http://www.w3.org/1999/xlink" x="0px" y="0px"
	 viewBox="0 0 512 512" style="enable-background:new 0 0 512 512;" xml:space="preserve">
<path style="fill:#303C42;" d="M501.333,448c-5.896,0-10.667-4.771-10.667-10.667c0-45.323-102.396-93.771-256-95.927V416
	c0,17.646-14.354,32-32,32c-7.938,0-15.604-3.042-21.542-8.563l-13.771-12.74C122.042,384.771,46.188,314.604,7.375,275.688
	C2.625,270.885,0,263.906,0,256s2.625-14.885,7.375-19.677c38.813-38.927,114.667-109.094,159.979-151.021l13.771-12.74
	C187.063,67.042,194.729,64,202.667,64c17.646,0,32,14.354,32,32v74.844C388.563,176.052,512,293.594,512,437.333
	C512,443.229,507.229,448,501.333,448z"/>
<path style="fill:#7CB342;" d="M202.667,85.333c-3.25,0-5.625,1.563-7.042,2.875l-13.771,12.75
	C136.646,142.781,61,212.76,22.5,251.375c-0.583,0.573-1.167,2.24-1.167,4.625c0,2.385,0.583,4.052,1.167,4.635
	C61,299.24,136.646,369.219,181.854,411.042l13.771,12.75c1.417,1.313,3.792,2.875,7.042,2.875c5.875,0,10.667-4.781,10.667-10.667
	v-85.333c0-5.896,4.771-10.667,10.667-10.667c116.917,0,215.479,27.01,261,66.885C459.646,275.729,352.25,192,224,192
	c-5.896,0-10.667-4.771-10.667-10.667V96C213.333,90.115,208.542,85.333,202.667,85.333z"/>
<path style="opacity:0.1;enable-background:new    ;" d="M202.667,377.333c-3.25,0-5.625-1.111-7.042-2.044l-13.771-9.064
	C136.646,336.491,61,286.741,22.5,259.296c-0.583-0.415-1.167-1.6-1.167-3.296c0,2.385,0.583,4.052,1.167,4.635
	C61,299.24,136.646,369.219,181.854,411.042l13.771,12.75c1.417,1.313,3.792,2.875,7.042,2.875c5.875,0,10.667-4.781,10.667-10.667
	v-46.25C213.333,373.934,208.542,377.333,202.667,377.333z"/>
<linearGradient id="SVGID_1_" gradientUnits="userSpaceOnUse" x1="-45.1332" y1="638.1843" x2="-21.9938" y2="627.3941" gradientTransform="matrix(21.3333 0 0 -21.3333 996.3334 13791.667)">
	<stop  offset="0" style="stop-color:#FFFFFF;stop-opacity:0.2"/>
	<stop  offset="1" style="stop-color:#FFFFFF;stop-opacity:0"/>
</linearGradient>
<path style="fill:url(#SVGID_1_);" d="M501.333,448c-5.896,0-10.667-4.771-10.667-10.667c0-45.323-102.396-93.771-256-95.927V416
	c0,17.646-14.354,32-32,32c-7.938,0-15.604-3.042-21.542-8.563l-13.771-12.74C122.042,384.771,46.188,314.604,7.375,275.688
	C2.625,270.885,0,263.906,0,256s2.625-14.885,7.375-19.677c38.813-38.927,114.667-109.094,159.979-151.021l13.771-12.74
	C187.063,67.042,194.729,64,202.667,64c17.646,0,32,14.354,32,32v74.844C388.563,176.052,512,293.594,512,437.333
	C512,443.229,507.229,448,501.333,448z"/>
<g>
</g>
<g>
</g>
<g>
</g>
<g>
</g>
<g>
</g>
<g>
</g>
<g>
</g>
<g>
</g>
<g>
</g>
<g>
</g>
<g>
</g>
<g>
</g>
<g>
</g>
<g>
</g>
<g>
</g>
</svg>
