<?xml version="1.0" encoding="iso-8859-1"?>
<!-- Generator: Adobe Illustrator 19.0.0, SVG Export Plug-In . SVG Version: 6.00 Build 0)  -->
<svg version="1.1" id="Capa_1" xmlns="http://www.w3.org/2000/svg" xmlns:xlink="http://www.w3.org/1999/xlink" x="0px" y="0px"
	 viewBox="0 0 511.99 511.99" style="enable-background:new 0 0 511.99 511.99;" xml:space="preserve">
<path style="fill:#303C42;" d="M255.995,63.995c-116.521,0-219.188,75.844-255.479,188.74c-0.688,2.115-0.688,4.406,0,6.521
	c36.292,112.896,138.958,188.74,255.479,188.74s219.188-75.844,255.479-188.74c0.688-2.115,0.688-4.406,0-6.521
	C475.182,139.839,372.516,63.995,255.995,63.995z"/>
<path style="fill:#FAFAFA;" d="M255.995,426.661c-106.104,0-199.75-68.438-234.104-170.667
	c34.354-102.229,128-170.667,234.104-170.667s199.75,68.438,234.104,170.667C455.745,358.224,362.099,426.661,255.995,426.661z"/>
<g>
	<circle style="fill:#303C42;" cx="255.995" cy="255.995" r="128"/>
	<circle style="fill:#303C42;" cx="255.995" cy="255.995" r="128"/>
</g>
<circle style="fill:#BBDEFB;" cx="255.995" cy="255.995" r="106.667"/>
<circle style="opacity:0.4;fill:#FFFFFF;enable-background:new    ;" cx="213.328" cy="202.661" r="32"/>
<linearGradient id="SVGID_1_" gradientUnits="userSpaceOnUse" x1="-34.5884" y1="634.3532" x2="-28.3379" y2="628.1076" gradientTransform="matrix(21.3333 0 0 -21.3333 996.4393 13791.5508)">
	<stop  offset="0" style="stop-color:#000000;stop-opacity:0.1"/>
	<stop  offset="1" style="stop-color:#000000;stop-opacity:0"/>
</linearGradient>
<path style="fill:url(#SVGID_1_);" d="M350.124,169.521l-0.016,0.014c20.965,22.802,33.887,53.113,33.887,86.46
	c0,70.583-57.417,128-128,128c-33.94,0-64.75-13.367-87.682-34.999l-0.059,0.057l77.184,77.184c3.517,0.151,7.01,0.424,10.557,0.424
	c92.533,0,175.563-52.069,218.082-133.188L350.124,169.521z"/>
<linearGradient id="SVGID_2_" gradientUnits="userSpaceOnUse" x1="-44.6972" y1="639.1369" x2="-24.7194" y2="629.8215" gradientTransform="matrix(21.3333 0 0 -21.3333 996.4393 13791.5508)">
	<stop  offset="0" style="stop-color:#FFFFFF;stop-opacity:0.2"/>
	<stop  offset="1" style="stop-color:#FFFFFF;stop-opacity:0"/>
</linearGradient>
<path style="fill:url(#SVGID_2_);" d="M255.995,63.995c-116.521,0-219.188,75.844-255.479,188.74c-0.688,2.115-0.688,4.406,0,6.521
	c36.292,112.896,138.958,188.74,255.479,188.74s219.188-75.844,255.479-188.74c0.688-2.115,0.688-4.406,0-6.521
	C475.182,139.839,372.516,63.995,255.995,63.995z"/>
<g>
</g>
<g>
</g>
<g>
</g>
<g>
</g>
<g>
</g>
<g>
</g>
<g>
</g>
<g>
</g>
<g>
</g>
<g>
</g>
<g>
</g>
<g>
</g>
<g>
</g>
<g>
</g>
<g>
</g>
</svg>
