<?xml version="1.0" encoding="iso-8859-1"?>
<!-- Generator: Adobe Illustrator 19.0.0, SVG Export Plug-In . SVG Version: 6.00 Build 0)  -->
<svg version="1.1" id="Layer_1" xmlns="http://www.w3.org/2000/svg" xmlns:xlink="http://www.w3.org/1999/xlink" x="0px" y="0px"
	 viewBox="0 0 491.328 491.328" style="enable-background:new 0 0 491.328 491.328;" xml:space="preserve">
<g>
	<g>
		<path d="M490.177,239.706C454.351,150.431,356.088,90.449,245.664,90.449c-110.407,0-208.669,59.981-244.512,149.254
			c-1.537,3.827-1.536,8.1,0.002,11.927c35.871,89.271,134.132,149.25,244.51,149.25c110.372,0,208.633-59.979,244.51-149.248
			C491.712,247.806,491.713,243.533,490.177,239.706z M245.664,368.88c-94.915,0-179.284-49.254-212.29-123.218
			c32.983-73.962,117.352-123.214,212.29-123.213c94.953,0,179.322,49.251,212.29,123.211
			C424.942,319.625,340.572,368.88,245.664,368.88z"/>
	</g>
</g>
<g>
	<g>
		<path d="M244.768,152.32c-51.47,0-93.344,41.874-93.344,93.344c0,51.47,41.874,93.344,93.344,93.344
			c51.47,0,93.344-41.874,93.344-93.344C338.112,194.194,296.238,152.32,244.768,152.32z M244.768,307.008
			c-33.825,0-61.344-27.519-61.344-61.344s27.519-61.344,61.344-61.344s61.344,27.519,61.344,61.344
			C306.112,279.489,278.593,307.008,244.768,307.008z"/>
	</g>
</g>
<g>
</g>
<g>
</g>
<g>
</g>
<g>
</g>
<g>
</g>
<g>
</g>
<g>
</g>
<g>
</g>
<g>
</g>
<g>
</g>
<g>
</g>
<g>
</g>
<g>
</g>
<g>
</g>
<g>
</g>
</svg>
