<?xml version="1.0" encoding="iso-8859-1"?>
<!-- Generator: Adobe Illustrator 19.0.0, SVG Export Plug-In . SVG Version: 6.00 Build 0)  -->
<svg version="1.1" id="Capa_1" xmlns="http://www.w3.org/2000/svg" xmlns:xlink="http://www.w3.org/1999/xlink" x="0px" y="0px"
	 viewBox="0 0 512 512" style="enable-background:new 0 0 512 512;" xml:space="preserve">
<rect y="301" style="fill:#337AAD;" width="256" height="60"/>
<rect x="256" y="301" style="fill:#275D86;" width="256" height="60"/>
<path style="fill:#1A405E;" d="M512,75v226H196L256,0h181C478.35,0,512,33.64,512,75z"/>
<path style="fill:#275D86;" d="M256,0v301H0V75C0,33.64,33.65,0,75,0H256z"/>
<polygon style="fill:#FFEEA6;" points="376,421 376,260 196,260 256,512 285,512 305,441 "/>
<rect x="136" y="260" style="fill:#FFF7D3;" width="120" height="252"/>
<g>
	<polygon style="fill:#FFDF5E;" points="376,421 285,421 285,512 	"/>
	<rect x="422" y="121" style="fill:#FFDF5E;" width="30" height="30"/>
	<rect x="422" y="181" style="fill:#FFDF5E;" width="30" height="30"/>
</g>
<polygon style="fill:#54A0C8;" points="256,241 256,301 136,301 136,271 "/>
<polygon style="fill:#337AAD;" points="376,271 376,301 256,301 256,241 "/>
<g>
	<rect x="136" y="211" style="fill:#76C5E4;" width="120" height="60"/>
	<rect x="136" y="121" style="fill:#76C5E4;" width="120" height="60"/>
</g>
<g>
	<rect x="256" y="211" style="fill:#54A0C8;" width="120" height="60"/>
	<rect x="256" y="121" style="fill:#54A0C8;" width="120" height="60"/>
</g>
<g>
</g>
<g>
</g>
<g>
</g>
<g>
</g>
<g>
</g>
<g>
</g>
<g>
</g>
<g>
</g>
<g>
</g>
<g>
</g>
<g>
</g>
<g>
</g>
<g>
</g>
<g>
</g>
<g>
</g>
</svg>
