<svg xmlns="http://www.w3.org/2000/svg" viewBox="0 0 481.06 481.06"><defs><style>.cls-1{fill:#1b2133;}</style></defs><title>Edit</title><g id="Setting"><g id="Setting-2" data-name="Setting"><path id="Setting-3" data-name="Setting" class="cls-1" d="M395.81,204.32,385,178.64s25.16-56.74,22.91-58.92L374.63,87.21c-2.32-2.25-59.08,23.65-59.08,23.65l-26.19-10.59s-23.13-57.51-26.31-57.51h-47c-3.25,0-24.67,57.66-24.67,57.66L165.23,111s-58-24.62-60.19-22.43L71.8,121.15C69.5,123.37,96,179,96,179L85.15,204.63s-58.76,22.64-58.76,25.69v46.06c0,3.21,58.91,24.2,58.91,24.2l10.8,25.6S71,382.89,73.15,385.07l33.29,32.59c2.25,2.22,59.05-23.7,59.05-23.7l26.22,10.62s23.12,57.48,26.32,57.48h47c3.27,0,24.69-57.66,24.69-57.66l26.22-10.6s57.85,24.63,60.09,22.48l33.29-32.56c2.31-2.26-24.22-57.85-24.22-57.85l10.79-25.64s58.79-22.68,58.79-25.78v-46C454.68,225.25,395.81,204.32,395.81,204.32ZM309.2,252.39c0,37-30.81,67.22-68.66,67.22s-68.66-30.18-68.66-67.22,30.84-67.14,68.66-67.14S309.2,215.36,309.2,252.39Z"/></g></g></svg>