<?xml version="1.0" encoding="iso-8859-1"?>
<!-- Generator: Adobe Illustrator 21.0.0, SVG Export Plug-In . SVG Version: 6.00 Build 0)  -->
<svg xmlns="http://www.w3.org/2000/svg" xmlns:xlink="http://www.w3.org/1999/xlink" version="1.1" id="Capa_1" x="0px" y="0px" viewBox="0 0 512 512" style="enable-background:new 0 0 512 512;" xml:space="preserve" width="512" height="512">
<g>
	<path d="M190.911,291.115c4.29-7.084,2.029-16.307-5.05-20.6c-7.078-4.292-16.295-2.031-20.585,5.053   c-15.661,25.861-40.584,52.296-68.001,62.496c-7.758,2.886-11.71,11.52-8.826,19.283c2.885,7.766,11.513,11.718,19.271,8.832   C141.879,353.473,171.683,322.865,190.911,291.115z"/>
	<path d="M315.808,208.598c-36.199-47.301-112.652-35.478-130.99,23.449c-2.461,7.909,1.951,16.316,9.853,18.779   c7.903,2.463,16.305-1.952,18.766-9.86c5.884-18.91,23.123-31.615,42.895-31.615c25.807,0,52.52,22.708,42.146,61.166   c-12.065,44.731-49.953,103.608-96.522,149.995c-5.867,5.843-5.889,15.34-0.049,21.21c5.839,5.87,15.327,5.894,21.195,0.049   c50.03-49.834,90.977-113.987,104.316-163.436C336.413,244.988,326.069,222.005,315.808,208.598z"/>
	<path d="M227.423,153.417c14.148-4.056,29.024-5.086,43.614-3.026c8.189,1.153,15.778-4.551,16.935-12.753   s-4.548-15.79-12.745-16.948c-18.059-2.553-37.215-1.511-56.059,3.891c-7.957,2.281-12.56,10.585-10.28,18.548   C211.169,151.096,219.47,155.698,227.423,153.417z"/>
	<path d="M156.205,223.111c5.854-18.896,16.858-35.662,31.822-48.484c6.288-5.387,7.02-14.855,1.636-21.146   c-5.383-6.291-14.846-7.024-21.132-1.637c-19.264,16.507-33.427,38.08-40.957,62.387c-11.565,37.332-28.804,59.516-52.701,67.82   c-7.819,2.716-11.957,11.263-9.242,19.087c2.717,7.831,11.259,11.964,19.074,9.249   C117.768,298.896,141.824,269.533,156.205,223.111z"/>
	<path d="M270.664,258.827c2.463-7.908-1.948-16.317-9.85-18.781c-7.902-2.468-16.305,1.949-18.767,9.856   C215.099,336.443,154.983,375.65,137.2,385.605c-7.224,4.044-9.804,13.183-5.763,20.411c4.037,7.222,13.164,9.814,20.397,5.767   C201.956,383.725,248.583,329.739,270.664,258.827z"/>
	<path d="M255.784,0C114.412,0,0,114.481,0,255.965c0,161.692,147.243,281.873,304.843,251.25c2.733,2.897,6.595,4.714,10.89,4.714   h149.873c8.277,0,14.987-6.715,14.987-14.998V378.134C573.665,206.846,448.39,0,255.784,0z M29.975,255.965   c0-124.6,101.298-225.969,225.809-225.969c170.065,0,279.105,182.049,199.482,331.954h-94.524v-59.039   c0-16.514,13.425-29.949,29.927-29.949c16.502,0,29.927,13.435,29.927,29.949v14.545c0,8.283,6.71,14.998,14.987,14.998   c8.277,0,14.987-6.715,14.987-14.998c0-15.123,0.581-21.917-2.751-32.508c1.541-5.354,15.28-81.224-36.823-149.303   C332.696,33.332,176.152,33.667,99.042,139.192c-17.942,24.555-26.74,54.402-33.95,69.361c-3.596,7.461-0.467,16.426,6.988,20.025   c7.457,3.597,16.414,0.467,20.01-6.993c13.21-27.409,19.607-65.785,66.921-100.402c28.446-20.813,62.099-31.814,97.321-31.814   c88.41,0,163.552,70.733,164.11,161.561c-8.902-5.126-19.239-8.042-30.133-7.953c-3.296-41.747-25.325-79.177-60.697-102.007   c-6.957-4.491-16.232-2.487-20.718,4.475c-4.486,6.961-2.484,16.243,4.471,20.732c28.997,18.715,46.427,50.146,47.358,84.851   c-17.89,10.38-29.957,29.742-29.957,51.884v59.039h-15.035c-8.277,0-14.987,6.715-14.987,14.998v100.481   C159.725,505.905,29.975,397.467,29.975,255.965z M450.619,481.933H330.72v-89.988h119.899V481.933z"/>
	<path d="M375.682,450.938h29.975c8.277,0,14.987-6.715,14.987-14.998c0-8.283-6.71-14.998-14.987-14.998h-29.975   c-8.277,0-14.987,6.715-14.987,14.998C360.695,444.223,367.405,450.938,375.682,450.938z"/>
</g>















</svg>
