<svg xmlns="http://www.w3.org/2000/svg" viewBox="0 0 481.06 481.06"><title>Edit</title><g id="Icon-Filtre"><path d="M293.23,332.13H162.76a5.71,5.71,0,0,0-4.16,1.74,5.57,5.57,0,0,0-1.77,4.11v11.7a5.56,5.56,0,0,0,1.77,4.11,5.71,5.71,0,0,0,4.16,1.74H293.23a5.72,5.72,0,0,0,4.17-1.74,5.59,5.59,0,0,0,1.76-4.11V338a5.56,5.56,0,0,0-1.76-4.11A5.72,5.72,0,0,0,293.23,332.13Z"/><path d="M385.18,199.84a13,13,0,0,0-9.44-3.93H80.26a13,13,0,0,0-9.44,3.93,12.62,12.62,0,0,0-4,9.3v26.51a12.6,12.6,0,0,0,4,9.3,13,13,0,0,0,9.44,3.94H375.74a13,13,0,0,0,9.44-3.94,12.59,12.59,0,0,0,4-9.3V209.14A12.61,12.61,0,0,0,385.18,199.84Z"/><path d="M336.91,271.41H119.09a9.56,9.56,0,0,0-7,2.9,9.31,9.31,0,0,0-2.94,6.87v19.53a9.29,9.29,0,0,0,2.94,6.87,9.58,9.58,0,0,0,7,2.9H336.91a9.58,9.58,0,0,0,7-2.9,9.33,9.33,0,0,0,2.94-6.87V281.18a9.35,9.35,0,0,0-2.94-6.87A9.58,9.58,0,0,0,336.91,271.41Z"/></g></svg>