<svg xmlns="http://www.w3.org/2000/svg" viewBox="0 0 481.06 481.06"><defs><style>.cls-1{fill:#1b2133;}</style></defs><title>Edit</title><g id="Recherche"><g id="Icon-Re"><path class="cls-1" d="M388.64,345.63,316.73,274.7a137.44,137.44,0,0,1-41.55,41l71.91,70.92a29.66,29.66,0,0,0,41.55,0A28.69,28.69,0,0,0,388.64,345.63Z"/><path class="cls-1" d="M318.89,201.89c0-64-52.63-115.93-117.54-115.93S83.82,137.87,83.82,201.89s52.62,115.93,117.53,115.93S318.89,265.91,318.89,201.89ZM201.35,288.84c-48.61,0-88.15-39-88.15-86.95s39.54-86.95,88.15-86.95,88.15,39,88.15,86.95S250,288.84,201.35,288.84Z"/><path class="cls-1" d="M132.79,201.89h19.59c0-26.64,22-48.3,49-48.3V134.26C163.55,134.26,132.79,164.6,132.79,201.89Z"/></g></g></svg>